<?xml version="1.0" encoding="UTF-8"?>
<svg width="32px" height="32px" viewBox="0 0 32 32" version="1.1" xmlns="http://www.w3.org/2000/svg">
    <title>DocuSeal</title>
    <g id="Page-1" stroke="none" stroke-width="1" fill="none" fill-rule="evenodd">
        <g id="docuseal-icon">
            <circle id="background" fill="#6D53F7" cx="16" cy="16" r="16"></circle>
            <path d="M23,8 L23,24 C23,24.5523 22.5523,25 22,25 L10,25 C9.44772,25 9,24.5523 9,24 L9,8 C9,7.44772 9.44772,7 10,7 L22,7 C22.5523,7 23,7.44772 23,8 Z" id="document" stroke="#FFFFFF" stroke-width="1.5"></path>
            <path d="M12,13 L20,13 M12,17 L20,17 M12,21 L16,21" id="lines" stroke="#FFFFFF" stroke-width="1.5" stroke-linecap="round"></path>
            <path d="M18,22 C19.1046,22 20,21.1046 20,20 C20,18.8954 19.1046,18 18,18 C16.8954,18 16,18.8954 16,20 C16,21.1046 16.8954,22 18,22 Z" id="seal" fill="#FFFFFF"></path>
        </g>
    </g>
</svg>
